<mxfile host="app.diagrams.net" agent="Mozilla/5.0 (X11; Ubuntu; Linux x86_64; rv:136.0) Gecko/20100101 Firefox/136.0" version="26.1.1">
  <diagram name="Page-1" id="9073FmAaHbQCN1-P8GJH">
    <mxGraphModel dx="2261" dy="772" grid="1" gridSize="10" guides="1" tooltips="1" connect="1" arrows="1" fold="1" page="1" pageScale="1" pageWidth="827" pageHeight="1169" math="0" shadow="0">
      <root>
        <mxCell id="0" />
        <mxCell id="1" parent="0" />
        <mxCell id="RPuWiBVwpdYMSCflNkx7-6" value="" style="rounded=1;whiteSpace=wrap;html=1;" vertex="1" parent="1">
          <mxGeometry x="-730" y="340" width="1190" height="760" as="geometry" />
        </mxCell>
        <mxCell id="RPuWiBVwpdYMSCflNkx7-7" style="edgeStyle=orthogonalEdgeStyle;rounded=0;orthogonalLoop=1;jettySize=auto;html=1;curved=1;" edge="1" parent="1" source="RPuWiBVwpdYMSCflNkx7-1">
          <mxGeometry relative="1" as="geometry">
            <mxPoint x="-530" y="330" as="targetPoint" />
          </mxGeometry>
        </mxCell>
        <mxCell id="RPuWiBVwpdYMSCflNkx7-1" value="Kubernetes cluster Creates, runs, and managesÂ &#xa;containers for HA" style="shape=image;verticalLabelPosition=bottom;labelBackgroundColor=default;verticalAlign=top;aspect=fixed;imageAspect=0;image=data:image/png,iVBORw0KGgoAAAANSUhEUgAAAMgAAADICAYAAACtWK6eAAAABGdBTUEAALGPC/xhBQAAACBjSFJNAAB6JQAAgIMAAPn/AACA6QAAdTAAAOpgAAA6mAAAF2+SX8VGAAAABmJLR0QA/wD/AP+gvaeTAAAACXBIWXMAAAsTAAALEwEAmpwYAAAAB3RJTUUH5AEeCi0Ri6oF4wAAGaxJREFUeNrt3Xl8XVW58PHfs/Y5SZp0onOhLVCLF9HLINAmpUBrm6RVQYZXuPJeuIJFuIDD5V4UUS4y+L4fkfuCLwqooAIiKhSRK7RJWgqlJGkpUGVGZOgAdKBzxnP2eu4fK4WW5gxpUtLTPN/PJ5RPzt77rHOyn73X8Ky1wRhjjDHGGGOMMcYYY4wxxhhjjDHGGGOMMcYYY4wxxhhjjDHGGGOMMcYYY4wxxhhjjDHGGGOMMcYYY4wxxhhjjDHGGGOMMcYYY4wxxhhjjDHGGGOMMcYYY4wxxhhjjDHGGGOMMcYYY4wxxhhjjDHGGGOMMcYYY8weJx/+hTaOAUiADsNLBcKRKKOBAYDr7QIXAA9sBN4GWYLnWSS9ARUvU97u7bKZLtopQPTJ/cG5A4EzUM4GDgb6AVFvF7QAxcA24CXgl8CfgLUyeVVvl8t0gQDoUwfDUUfB0qUTgWuAGVhQ9KRW4AFErqO99SVKSpFJb/V2mUweRBfvD0XFkG6fAnIzcASdVL1Mt3lgEcKFKK/YnaQwOCKBuP0gkGuAI7Hg2FMccCLKlQjDtX5Mb5fH5MHhSiJU/gU4vrcL0wcIcArKyeCxINn7OeK2w4H/BSR6uzB9RBnwZZDhoL1dFpODAyYC/9DbBeljjgA+YbXZvZ8DKoBkbxekj+kHMomSVG+Xw+SQAAqtIqxAE/AmYZxhJHAAUNTbBeuCCOQAWksFq2ft1RLAkN4uRBekgLnALSDPoT6NSBnCZ1C+Rqi6FAIB3S98HLM3S1BY6SN/ALkM5R1GKzJ+Nfr0GGhN3AHpFxFupXCCpJC+9z6rkP5IrwL/D3gH8cj4MNAmR6+COAWjihqAWwjVL2N6RCEFyGLQl8Ajk1fv9IKcsBrWtoHoY8Dfe7ugZt9RSAGyGqIWpK3zV2OBWN4BNvR2Qc2+o5AGB1PgkYr1nb+qaYA0JOLeLqjZdxRSgGTvDk0kAQRVG30zPaaQqljZA0QikMiCw/SofecOkvLh38jyN0zPKaQAyS4ZAwheLEBMjymkAMl+B1EFkL6WAFg+qSr8zwDNOgfUe8/SugW5j1ddmXMbB+IFFLSftgLQThG+h2vsUdTGwIEraG4eweMPLc1rn3+sqiISlaTKgAhGqTDQocUa8g09Ki0KG1RYE0Wuyauo+DSNNXWdHm/fCZCOGlYfiw8YDCijEc4CRu/wTewocs4tm/jIPfe6a26msbGx00NNrqoEGOThy4QcvU6/cw9eYW4qweMuVQxwgCJnASPowdyyOC5esGHDhDqRTj/T+8orqwGSOB0jMEXhREQPBQYLlGg4zyNAEU0JNAls1Dh+UZTFwOJJ1ZXvAO1LPhQohRMgmuOLjzp6sXzct0JEAGEYyrnAJ+n8BBXgnqU3/PjemYM7T70rr6rCQz/QS4ArCIt1ZLJAlZ8VpUDDFWkkcB5wKD2bfNmqGs3PdMjJM6czYNA6tmzyExTOAr6kMJ5wt8jnPDge4VzgdYH7QH9bUX3aKw01D7y/QeH0YokqkuW7jxXiPtvFK3xwQkgnP+H3qXakkyZaRVUVkYogejrwdaA0w3EEeF7hyuJI30h/8HXnev/d/snUa19eOR2fxm3ePHKGwq+BKwkBWkT+9QgBioFPAN8D+aWyddbxldOi46qmA4UUIDv9DTqjHT99rpLVbSqKd/5E4GpCNSmTVQrf/XzNtxpbitpYVlvbK+Utr54BSS9E8jmUW4Dj6H5tyAGTgVtSLvGF4i1pKqpmFFAVK9et23UEh82uyNtRUybTb+AAfDo+TEWuJVRPMtkC3CAqcx+uup5lDz7Ra+UWL3iiQwW5Gjikhw9/EHBV86CivwHPFcod5P3bQ0beg/e5bjNmB8VlZWjaj0bkGsJVOJM0cBsidyCkG2s77fH5SL73KTNn4aIoIcgFhFV4svHAGkIm+MvAG4RAz+VwYLZEieJ95w4iO/zX5DRp1nQULcPLpcApZP/u7lflBkG3ZegObQKeA7ZC9h6nDgoMJ1yts9ebP/RqTAxhDYWZOfZdC/wG1XkIq4AYZCChnXIqMIvsHRHTNZ3+5D4UIB2DAJaLldOkqhmQ9klx7jzgq2RfRXMh6NUo61xi16+2o83/Bug3yb22QcffUI5Q5Sqyn+CvIdqQaI1jLevY7a6/wj2XoshEYFyWfduAn3jvrxeRtiU18wGYenoFTeuGLUv2a5nnQ/XsQjK3ww9B+EShBIjm7D30AiBZe7r6uo6vJjEwQbw1fRLwHWBglj1eEJErhOhl79qof2ThLhs0zKuDcEJmXSqyYwBSgOkd73tkls0bEbkiFSUfjwbELH2kBoBj/vAflG7xNA2MxpP96r8W4U8SubYl8z644z02pyGUpapyvcLNIswkc7urCOSgQmmDAKJZLzjiO8Z3rZqVUVl/tvhW0lvjiSBXEQYWM3lX4eqGt1sa0xrTWLMw33fZRfnMKhBXDPwzYdbnJDr/O6WBB4AL05pamEyn/PbgAEikoWlwogjYL8dbxqhrEe389NZwlqwGlmU/jJYVSoDkbqSbXOKKooGkSY4X+AGhIZrJFuAHPtYHJ44sZmmGNIx8lFdXoZ4hqL8cuInMvU7bUH6qyiVOk38RZJf0D0XxoQqda2H1wSr+cPHtjD/3wl1fFVDRdkIDPputhVLFCt9PNr6jm9dZsmIGLSnnihKi/47ymSzbpYFfiOPXCSephrm7Fxzl1ZV471DVcSL6HeBcwqBcZ9YAN/rI3+J8tLW+5pFON9IYWltde2mp35bj7QeLcqFG0Qsj31z18vDPT2PJnz+4A4oHwYFoTFh5P0XoaHjvQz+P7zsBEq4pNg6SgcC2RGvbmYRqTqaagwfmCPwIz7aG3bxzjCo+hLJRg2h6d9OnQa4jPE4jUwP+JeAqcA85L22NNZkHHyWdprQsoSgrCM9fyXYn+Qwqv9aithtJJR6vmDFzjTqvjbW1iDhQicHfqaIPoawjrLHWrmhKlHaBlETSVigB0lHFynL2v1/ftF6sTrRryJe6mOyN8idF9fteZE1p2+6t2TW5qgqBqOndzTNBrgWOyrL5MoHvO8+C2JFCI8qrZtJYO6/TjZcsXEjFzEoQ/qLK28DYLMd2hLbO7QINGsW1wKOTqqteKCPV1ipRenFN3fJcn6dQAkTCB86VakKENdI7kwBOIuRYZaKgS4Y080pzESx87LEuv0l5dSUeLSPcpb5H7lU7xypcGzsuB/+qii5EeGJSdeUqIF7SyR0sdhECT0scP0X2ANmuP1AJTAVWC7q8iehhReonVVe+BTQtyXKnLJRGegQMIYrQxftn2EQBHUJ4lqLZmSPcObJdEAVk5voyd3hzsuvXmIqqKkSllJDs+CPyW9J2JOEOMwU4T9A7RHWOwDmI7z9p5vRddlj6yDxcOt0E3Aq804UiJgkDk6co3Ab6sMBNonpqeXXVoPKq6Z3uVCgBAnAscTwCt2uR9YkR29PdjyS/q4rp3CcF/RcnviSfiVM7Cqm3pAltg909r4qAo4GbxLurxEdDy6srKZ8xc6eNVASURQI/JrQduioiBMtsRH4BeqeKO2li9YzSiZ+butOGhRQgU4EzKC6J9KkPje1ESfDpCSCzyV7HNtkJcJaqTOpqS66+thZflGonin8K/H+gpZPN8u2uH4jwdUQvTcS+yEl6pxcba+oQ59oR91Pg/9C9tdCGAicL3OWQH7r2xISDzziVquOmAIUVIP2AK2hr/Rqp9pH65LikPjkmoYvH9AOZiPJfwIm9Xch9wEjQC5G4/6RZ07q0Y0uLQ+KoSVV/BPyK0H3aBjxOaJOc3fFzJWGQLtsaZkXAV9KRm+bdrtHaMK8G9eltxPGNqF4MPEV+eWCdEcLczH/Fya0jN289ormkPxNnTUe0fsxyCmfBZwj91s8DSwl91x8j9FaMprAC/jfAOTJ5Vbc6pstnVgEcjuq9wGE9VLaNiF6U8InfpVw7S+Y92rUyVVcBjED124i+pjAncu692GscORDBxWkOQvi/hKebZfu7/VbFfVXQpsZ5u3YBT6ysBhUniXi8KOcTEhHH072nNM8XYTboW4V0Qm1XAhwDXARcBpxGeD5IIX6W3tAGNOfYZj9UZqclHi0acc4xF3fpDRprakkha1PirmhN6W0tram19XNr4yU1ddTPrePwYWN8rP514IfA33Ic7ljUf0K18+vI0roals6f553oay7S7yr6T8C1wDMdn3V3TFPlAiKK7KTqW1TgPhF+QO7G7fHAF4mRV4e82uU3erqmhqdratqWP7pA//r44zu9dutdv0IS4CO/HGjIcaiDQT4W+ZjDTzs940YNc+dT/8j8NCrPeOU6lFMJ89TvJswFyXVR2FEEnK4pOcoCpG95AuRqRX9G7hOzCJiN84egu1u1z2zp3AW42HnCSHq2UcmEoGNn1dXTr3lrzuMuqa1jaW1djLgVfu3YByhKnyeiJ4FeCswhpJDkYwIwpVAGCk33vSrIf7qi+LV0UwIp8rehlJN93OgwxJ0be/5zYmVlamnd7ictZqS6EZFcETjwz5UnROI1Bjjq5HI2DX+F4auOjpxGSREtUtUiEU2ouC1Ac+O8jizgZ0lXnlD52uJDeO2IVfwe0WNRuYgwYao4y3s6hKMtQPqOZ0al/aKN6kgnFfWyQEQfAv53ln0i4J9cxMPi3eKJn53O0kd2XXxu0vQZoJqUyA1FGIYwHBiuyjZRalVIL6nNEFwi+TxANvZ4Io0onzljLG0ydeSqo4eADEP8UIVhCMMUccB1wPwdd65bVAeLgOrKTXE6UeecXy6iPwC+Qva267i9NUAUSxnpaf6P7Rv0s/1H4vsPoHXj+s0SRXcC04D9s+x3kMBX1PlnXOx2qseXT58GyWQ1qieB7E8YU9iv498hAnMQnS/Z/5T7k3sm4nsl6ZI4du34SKYCd0CngbUG1Yzn9Pb0+YrqynVe5GZR/VyOz16yN7VBYuAV4HfADcDPgUa61rja0QbgUeD2jmMtpM8/XMejwKL7/kAkDlF9jDBBKVdX8ykCVbv8VpKgejYhCfJU4ATgHwknXQlCK9J5Ct2kqumo+tKO7bOdh83AilRRG2VDAWUQmbtw+6OMUBFmj8q8QIsKCLqGHLMgga17Q4AoYYL9T1A9C8c5CN8iyQUoZxC67PJtWG33HPANlC/i3PmsLLkA+CJhDvICdr/7b5/RUDcfFUkBvyQ8UjubwcBsJzKyYuYOcSIqZH9K8j+I9/2c3zn+Dv3SmSRjj7ioAvh0jvd+TdG/K8rGtRFkv2CWIUx3MOCFIydwWPWkTjfSMJ5f3PG5snm9twNkC/Ag6Jcgvhz0GSlflZKKVcixq8DJSkRuBK4n/5N6JfBvJLiHiA1SvgI58zVQeY904n7CSO6/E4Ionecx90mCIETPAXeRfVQb4DNe9dS2okHbBwJxDgU2ZtnnCHVyFk6KK3bI7Rq8cSPpRPIQVP+N3EmNjd7rq6oQFacBVpC91+s0Vb1EYchAGbTLixUzq3AipcCZwIFZjpMClvZWGyQGliLcjugclM1SsWtiplSsROvHtoHcC3oSIeszl9+hLCKNyuQP7qBy3EoA1YZx7+CiW/DpR1H9MiE1e/88jrvPaaippby6Mg3cC3yekCiYST/g/KK2zbWgrwOkRXCqy4Ez6DxTeABwpYexIPPKq6reRbQU1cOBcyDrzEaANaD3Rk5SjTXzmVQ9A4U3BHmFzFOG+wPfQ/VYoLZ8ZuULqroBoU2UMlU9iFBdPJPsvVgvojR+1AHigTdB70LkTpK8hReViVmqgl6gPbmakranyB0gbcBjIKlMjyqUihUAqg2jX8LJVah7GOViwpyBXIsB7HPS3vHmxkGvTBi66U7QT5H9pDkC9Gwv/rqJs6bHoeok8zoWvM60DM9o4DLQcxC2EhrkI8g9LSEG7o6dr3cdk+FUBa+sSDgeJrRdMrX+Swltopko7wnSjBJ3vPcQslcLAVIKD7QXlz7/UVax3gN+hXImqtch8iabmrMHB0DpFiiKPfmtiNcCbEMUmfh21g2l4h3wrpVWtwin5yF8lZBU1/4Rfie9blldDROGbkJEfk/oFMkmAs526o5x3iEoEf5lCZ0grVn2SxDSgQ4l5M7lCg4FHlavP074RPuWLaHZsbS2joQjBdyZR1kh3PXGAB8nLFA9gdzBAbBAkNuL21vijyJAWoE6YDai30RlGUliKV+JzMijU6m5P2hcDIzK473KUIbgFF00LufGMnkVMm0FSKKJfv3ngJ4DfJeQH9R3npbrHFHr1rWI/JywOmI2HwO+LPiyjtz1lKC/AO4he9sgXzFQo/DtIseqBi3mpfr6918MXbXyCnAVIYWkJymwGPheFKXfVt2zCX6ekDD2LRxn8ZdVDzJ0+DaZsjLn1f390j5xYLhmRXyc0IWYSxLh88S+pCtPg5ZJbyFHvqwIK1C5kZAAeQuQX0ELXOPceaSLysBrDVCTxy5nKO4EQYgRPLIWuBz0RmBdN4qyAbhVhAtj1ZfVOaj97102inzMgKZt8wXOBx6hZ3olt4DeI+gF6xj+dBxHLKmt3WMB8g5wI8jZbOr3E7YVrZd/Bfn48rwPoPVAQgC3H+jXCbfnfJyKRKfhyiJtGJ/nLoFUrEaOWxmT8M+TiC9D+ArwICGtfm+240Qk7eQn/D5ZRKas2MbaOsTxngh3ELrdMx1LCdWUC2JkkO9Yv0rQ9RIenzAbeIhQJc7nKuWBTcDDwGxUvqNe3lpWO5/Fcztf4eTJugXULW5QhcUalk69DKgn/J26kjgWE+6Y84BLVOXrknAv/r3mt+8PKvZ0I30LUAN6M8gSoJ3Bf0Mmd+0g2jAGnEbE6aOBbwKnk//I+hDgenzLGETv1fpxK2Xyii69v0x8G102vo1+g+bRvK6RmC8AFxD67Iu7dLA9LZyy6xF+RZZHsAHLJv7HN9h0zc1ZPjiALAT9Psp4Mg8gCrA1Eh0KbAZoqJnPpKoZzXFL00NRadkihCNEmUaYmjCG0HAuIdRaUoQTcw2wTJEanPylKN26KXYJra/J/SxFCNWt8srpq4Fb1MnvReUoRE8EOZIw372UkHS5/aE6MdvbqaF2sEzgMUWfp002iqD1H3rmSU9NmIoJ2aG3E8ufKIo3sbkEqXq9a3/rJ9/vEh+L8M+ExcZ29/kPaUIGzi+I9M+0R9vk+K4FCoA+OxKeGAvHvDMOZHuZJnTz+4KemjDVCw/xBBDZvm41Wj9v1zyrT1dXktyaJlEaFftIRikyBGEAqhHQArLOeX17Y4qW/YdAfT20vNu9ZMgp1dMoTnmak1HSOzfCefZTpRSRUlV1gqSAzSK61nlZv3rIp9OjNj1HY4aF6qBnAuQNQjrHb4AVO4495EvrR8LkNdBwwH6onESYDHUE4YrTXZuA/w5PIvLPgLTLcat3o4xjIZyCR4JeRJgJ15357z0SIGbP6m6AvIjqN/BNjyIJL1PWd/kAumgUiBQRRVMJ1ZhqoGwPfNYVwN0od/L4QX/jqHeRWa91vbwNB0DoPrwIle+y+2MnFiAFoDuN9K3ADUz+43wSA7ocHPrkGHTxGEcieRhRdD0hJ+g09kxwQBjIuhzhHqa+eQGDW4fq3ePQN/JZvukDUrEaQj32Z8B9e6isZi/RnQB5FmE+jachFSvz3knrx6APlQA6BsfXQO8HLiEMJO1pEXAscBPK3UzwJ7PGl2p9195aKlaDl20oD9C9bk2zl+tOL9YqBiRX05LfeIPWjw4Vk+a4jOHDqlEuIjxVtF9eB+hZJcAslKNR90fQn2nD6L/SnooZOgL51Iv5HudVQi/O8F74DOYj0J07iGNjkyOPRY51yYEQFSVpjSqQ6DaU2wlPGuqN4NjRCOB8kPvR6AqS/T5GS7PTJQfm3jM8hMXWAt7HdecOMp6o6EDg75k20Iax4EVI+4OR9zNnD+7tD/0hjrCO0lWgnyWV/jni5mjDuC2oJ0ev3KfogwmOfUl37iCHAyfj0u7DdXhtHI2+WARehyP+XETvA77N3hccO4qAcuAm1N8JfgaR9NOGnZ9Spj/8LNo4BnBDCCnT+SS/mQLVnTtICXApPrEO7+bo4nEtOMApICVsGjEV4SLCw1N6uyrVFQOBU1AmE+u9iPulLtr/eRwe50CWg8oI8N8CvtDbhTV7VoLdX88UQgrBjTg/C6gF1uAZDVpJWAwgnwzcvdUI4GJUqknII6D1CM2oO5Qwueg4upd20vOLTZkel6D7CxkMA75EGFne/lisJPtG4zVBSJL8OMjFKL7js3U3h01BNhbO84v6rgRhDnd3CSEhbF/l6NkkxRh0FcXNNoq+l3OEJMOemOhi8tcMLKEtnzXTTG9yhOcq9PTMLJPdchD7zguAI9nvr8D99PElcD5CTcBdlGxd98GTec3eytHeEqPcSZg7YfYsBR5E+BNt/ZHjuj4/xXy0HOohEb2F6pXAs+T3DDnTdR54DOFalPVS0fV5M+aj52TK25Bqgv9aXQ96PmF+rlW3elYrwr2IXIS0voJY926h2GmsQpcPg+Z+40C/SFj57mDCvN7uPO+tr0oT2hsvAncg8hCwritTA0zv22UwT+vHAUTghxFyk45EOQBhAPYcwHzEhGm+q4EliHsWjTeC+N2ZjmyMMcYYY4wxxhhjjDHGGGOMMcYYY4wxxhhjjDHGGGOMMcYYY4wxxhhjjDHGGGOMMcYYY4wxxhhjjDHGGGOMMcYYY4wxxhhjjDHGGGOMMcYYY4wxxhhjjDHGGGOMMcYYY4wxxhhjjDHGGGOMMcYYY4wxxhhjjDHG7PP+B46M9RxvW59uAAAAJXRFWHRkYXRlOmNyZWF0ZQAyMDIwLTAxLTMwVDEwOjQ1OjE3KzAwOjAwShbajgAAACV0RVh0ZGF0ZTptb2RpZnkAMjAyMC0wMS0zMFQxMDo0NToxNyswMDowMDtLYjIAAAAASUVORK5CYII=;" vertex="1" parent="1">
          <mxGeometry x="-200" y="50" width="200" height="200" as="geometry" />
        </mxCell>
        <mxCell id="RPuWiBVwpdYMSCflNkx7-2" value="package manager for Kubernetes + compose tool" style="shape=image;verticalLabelPosition=bottom;labelBackgroundColor=default;verticalAlign=top;aspect=fixed;imageAspect=0;editableCssRules=.*;image=data:image/svg+xml,PHN2ZyB3aWR0aD0iMzIyLjUxMjQyMDY1NDI5NjkiIHZpZXdCb3g9Ii05LjMyMTQyODI5ODk1MDE5NSAtOS42NjgwNjAzMDI3MzQzNzUgMzIyLjUxMjQyMDY1NDI5NjkgMzY5Ljg3NjY0Nzk0OTIxODc1IiBoZWlnaHQ9IjM2OS44NzY2NDc5NDkyMTg3NSIgeG1sbnM6eGxpbms9Imh0dHA6Ly93d3cudzMub3JnLzE5OTkveGxpbmsiIHhtbG5zPSJodHRwOi8vd3d3LnczLm9yZy8yMDAwL3N2ZyI+JiN4YTs8bWFzayBmaWxsPSIjZmZmIiBpZD0iYSI+JiN4YTs8cGF0aCBmaWxsLXJ1bGU9ImV2ZW5vZGQiIGZpbGw9IiNmZmYiIGQ9Im0wIDBoMzEzLjMwMzE1NXYxNTkuODY0ODY1aC0zMTMuMzAzMTU1eiIvPiYjeGE7PC9tYXNrPiYjeGE7PG1hc2sgZmlsbD0iI2ZmZiIgaWQ9ImIiPiYjeGE7PHBhdGggZmlsbC1ydWxlPSJldmVub2RkIiBmaWxsPSIjZmZmIiBkPSJtMCAwaDMxMy4zMDMxNTV2MTU5Ljg2NDg2NWgtMzEzLjMwMzE1NXoiLz4mI3hhOzwvbWFzaz4mI3hhOzxnIHRyYW5zZm9ybT0idHJhbnNsYXRlKC0xMSAtNTEpIiBmaWxsLXJ1bGU9ImV2ZW5vZGQiIGZpbGw9Im5vbmUiPiYjeGE7PHBhdGggZmlsbD0iIzBmMTY4OSIgZD0ibTExLjY3ODU3MTQgMTg5aDE5Ljc4NTgzNTd2MjYuNzg5aDIzLjkwMzd2LTI2Ljc4OWgxOS43ODU4MzU4djc1LjI1aC0xOS43ODU4MzU4di0yOC42OTUzMzNoLTIzLjkwMzd2MjguNjk1MzMzaC0xOS43ODU4MzU3em04Ni4xNzM4NDI5IDc1LjI1di03NS4yNWg0Ni44MDMwNDI3djE2LjM1NDMzM2gtMjcuMDE3MjA3djEyLjI0MDY2N2gyMy45MDM3djE2LjY1NTMzM2gtMjMuOTAzN3YxMy44NDZoMjcuMDE3MjA3djE2LjE1MzY2N3ptNjguNDk3MTU2NyAwdi03NS4yNWgxOS43ODU4MzZ2NTUuMzg0aDI3LjExNzY0M3YxOS44NjZ6bTc3LjUzNjM3Mi03NS4yNSAzMC43MzMzMjggMjcuODkyNjY3IDMwLjYzMjg5My0yNy44OTI2NjdoOC45Mzg3Nzl2NzUuMjVoLTE5Ljg4NjI3MnYtMzguNjI4MzMzbC0xOS42ODU0IDE3Ljk1OTY2Ni0xOS43ODU4MzUtMTcuODU5MzMzdjM4LjUyOGgtMTkuODg2Mjcydi03NS4yNXoiLz4mI3hhOzxnIHRyYW5zZm9ybT0ibWF0cml4KDEgMCAwIC0xIDExLjk1ODEzNiA0NTUpIj4mI3hhOzxnIG1hc2s9InVybCgjYSkiIGZpbGw9IiMwZjE2ODkiPiYjeGE7PHBhdGggdHJhbnNmb3JtPSJtYXRyaXgoLjgxOTE1MjA0IC41NzM1NzY0NCAtLjU3MzU3NjQ0IC44MTkxNTIwNCAxMTEuODcwMDkxIC01MS43MDY1NTYpIiBkPSJtMjAzLjQ2MDY3NiA5NS42ODc1NDI1YzYuOTM2MzEgMCAxMi41NTkzMDEtMTQuODA5MjE5NCAxMi41NTkzMDEtMzMuMDc3MzE3MnMtNS42MjI5OTEtMzMuMDc3MzE3Mi0xMi41NTkzMDEtMzMuMDc3MzE3MmMtNi45MzYzMTEgMC0xMi41NTkzMDEgMTQuODA5MjE5NC0xMi41NTkzMDEgMzMuMDc3MzE3MnM1LjYyMjk5IDMzLjA3NzMxNzIgMTIuNTU5MzAxIDMzLjA3NzMxNzJ6Ii8+JiN4YTs8cGF0aCB0cmFuc2Zvcm09Im1hdHJpeCgtLjgxOTE1MjA0IC41NzM1NzY0NCAuNTczNTc2NDQgLjgxOTE1MjA0IDU4LjA4NDYxMSA0Ny43MDQ3NjgpIiBkPSJtMzAuMTQyMzIyMyA5NS42ODc1NDI1YzYuOTM2MzEwNCAwIDEyLjU1OTMwMS0xNC44MDkyMTk0IDEyLjU1OTMwMS0zMy4wNzczMTcycy01LjYyMjk5MDYtMzMuMDc3MzE3Mi0xMi41NTkzMDEtMzMuMDc3MzE3Mi0xMi41NTkzMDA5IDE0LjgwOTIxOTQtMTIuNTU5MzAwOSAzMy4wNzczMTcyIDUuNjIyOTkwNSAzMy4wNzczMTcyIDEyLjU1OTMwMDkgMzMuMDc3MzE3MnoiLz4mI3hhOzxwYXRoIHRyYW5zZm9ybT0ibWF0cml4KC0xIDAgMCAxIDI3Mi42Mjg1MjQgNTMuNjcwNzYyKSIgZD0ibTExNi43MzI4MTUgNjYuMjc1MjY3NmM2LjkzNjMxMSAwIDEyLjU1OTMwMS0xNC44MDkyMTkzIDEyLjU1OTMwMS0zMy4wNzczMTcyIDAtMTguMjY4MDk3OC01LjYyMjk5LTMzLjA3NzMxNzEzLTEyLjU1OTMwMS0zMy4wNzczMTcxMy02LjkzNjMxIDAtMTIuNTU5MzAxIDE0LjgwOTIxOTMzLTEyLjU1OTMwMSAzMy4wNzczMTcxMyAwIDE4LjI2ODA5NzkgNS42MjI5OTEgMzMuMDc3MzE3MiAxMi41NTkzMDEgMzMuMDc3MzE3MnoiLz4mI3hhOzwvZz4mI3hhOzxwYXRoIHN0cm9rZS13aWR0aD0iMjAiIHN0cm9rZT0iIzBmMTY4OSIgbWFzaz0idXJsKCNhKSIgZD0ibTI1MS40NjcwMDYgMTczLjA5OTg0OWMtMjAuMjMwMDc2LTMzLjYwOTk2OS01Ni44ODk1NjUtNTYuMDY3OTA4LTk4Ljc1NTc3Ni01Ni4wNjc5MDgtNDAuNzIwNzk4IDAtNzYuNTE1ODc2NiAyMS4yNDU5MDEtOTcuMDU4Njk1OSA1My4zMzQ1ODhtMi4xOTgxMTA3IDEyOS4xNjk1MzRjMjAuODQwMzAzNiAzMC4yMzI3MDEgNTUuNTU1OTA0MiA1MC4wMjY1OTEgOTQuODYwNTg1MiA1MC4wMjY1OTEgMzkuMzc2MDk5IDAgNzQuMTQ2NDI0LTE5Ljg2NTg4NyA5NC45NzQwNDktNTAuMTkxNDk1Ii8+JiN4YTs8L2c+JiN4YTs8ZyB0cmFuc2Zvcm09InRyYW5zbGF0ZSgxMS45NTgxMzYpIj4mI3hhOzxnIG1hc2s9InVybCgjYikiIGZpbGw9IiMwZjE2ODkiPiYjeGE7PHBhdGggdHJhbnNmb3JtPSJtYXRyaXgoLjgxOTE1MjA0IC41NzM1NzY0NCAtLjU3MzU3NjQ0IC44MTkxNTIwNCAxMTEuODcwMDkxIC01NC4xNjYwMTYpIiBkPSJtMjAzLjQ2MDY3NiA5NS42ODc1NDI1YzYuOTM2MzEgMCAxMi41NTkzMDEtMTQuODA5MjE5NCAxMi41NTkzMDEtMzMuMDc3MzE3MnMtNS42MjI5OTEtMzMuMDc3MzE3Mi0xMi41NTkzMDEtMzMuMDc3MzE3MmMtNi45MzYzMTEgMC0xMi41NTkzMDEgMTQuODA5MjE5NC0xMi41NTkzMDEgMzMuMDc3MzE3MnM1LjYyMjk5IDMzLjA3NzMxNzIgMTIuNTU5MzAxIDMzLjA3NzMxNzJ6Ii8+JiN4YTs8cGF0aCB0cmFuc2Zvcm09Im1hdHJpeCgtLjgxOTE1MjA0IC41NzM1NzY0NCAuNTczNTc2NDQgLjgxOTE1MjA0IDU4LjA4NDYxMSA0NS4yNDUzMDgpIiBkPSJtMzAuMTQyMzIyMyA5NS42ODc1NDI1YzYuOTM2MzEwNCAwIDEyLjU1OTMwMS0xNC44MDkyMTk0IDEyLjU1OTMwMS0zMy4wNzczMTcycy01LjYyMjk5MDYtMzMuMDc3MzE3Mi0xMi41NTkzMDEtMzMuMDc3MzE3Mi0xMi41NTkzMDA5IDE0LjgwOTIxOTQtMTIuNTU5MzAwOSAzMy4wNzczMTcyIDUuNjIyOTkwNSAzMy4wNzczMTcyIDEyLjU1OTMwMDkgMzMuMDc3MzE3MnoiLz4mI3hhOzxwYXRoIHRyYW5zZm9ybT0ibWF0cml4KC0xIDAgMCAxIDI3Mi42Mjg1MjQgNTEuMjExMzAyKSIgZD0ibTExNi43MzI4MTUgNjYuMjc1MjY3NmM2LjkzNjMxMSAwIDEyLjU1OTMwMS0xNC44MDkyMTkzIDEyLjU1OTMwMS0zMy4wNzczMTcyIDAtMTguMjY4MDk3OC01LjYyMjk5LTMzLjA3NzMxNzEzLTEyLjU1OTMwMS0zMy4wNzczMTcxMy02LjkzNjMxIDAtMTIuNTU5MzAxIDE0LjgwOTIxOTMzLTEyLjU1OTMwMSAzMy4wNzczMTcxMyAwIDE4LjI2ODA5NzkgNS42MjI5OTEgMzMuMDc3MzE3MiAxMi41NTkzMDEgMzMuMDc3MzE3MnoiLz4mI3hhOzwvZz4mI3hhOzxwYXRoIHN0cm9rZS13aWR0aD0iMjAiIHN0cm9rZT0iIzBmMTY4OSIgbWFzaz0idXJsKCNiKSIgZD0ibTI1MS40NjcwMDYgMTcwLjY0MDM5Yy0yMC4yMzAwNzYtMzMuNjA5OTY5LTU2Ljg4OTU2NS01Ni4wNjc5MDgtOTguNzU1Nzc2LTU2LjA2NzkwOC00MC43MjA3OTggMC03Ni41MTU4NzY2IDIxLjI0NTktOTcuMDU4Njk1OSA1My4zMzQ1ODdtMi4xOTgxMTA3IDEyOS4xNjk1MzRjMjAuODQwMzAzNiAzMC4yMzI3MDIgNTUuNTU1OTA0MiA1MC4wMjY1OTEgOTQuODYwNTg1MiA1MC4wMjY1OTEgMzkuMzc2MDk5IDAgNzQuMTQ2NDI0LTE5Ljg2NTg4NiA5NC45NzQwNDktNTAuMTkxNDk0Ii8+JiN4YTs8L2c+JiN4YTs8L2c+JiN4YTs8L3N2Zz4=;" vertex="1" parent="1">
          <mxGeometry x="530" y="149.99999999999997" width="133" height="152.35" as="geometry" />
        </mxCell>
        <mxCell id="RPuWiBVwpdYMSCflNkx7-3" value="" style="shape=image;verticalLabelPosition=bottom;labelBackgroundColor=default;verticalAlign=top;aspect=fixed;imageAspect=0;image=data:image/webp,UklGRpZTAABXRUJQVlA4TIlTAAAv/8OXEFUL5DaSHElRkeO/09UK3Se+ETEB/Ddrr7ahlnfqT8wf9+uHVODrj4zXPPLPrDsUSOI4iT3dkSbBngR7ehsmiaKZVaIDR84y42gpQyssq3Qr4aPrmarRogJV7BeHq6o2rvbgFboBiRYnVew7q+mafgTVJHFYGyopCmFHZ6ilNIYC2m6tKpXHXX/iXR9yEVTv6yPTHV/k8hvLdl7UEcibqhtaeo+aJKAmUYEkuQYqiTOGSeqin1sLiwOAshzb2VbBhg9+eGDDDx/8sOGHDz7Y8MKChoaGhoaGBQ3NLPkeX98695xz77nV7jpyxmVYN9MqvmLVk8L/Dixn2MTYuhl28fStyryAcMsZ1vBh6WbAJv2x5Qw8O2hVBho8x7rgDzQrsJxhHZYz7iKlk3ELc1rOPCzCKtB6G/g4pZNpG5Yzzyjcz6D5R6Gls5KSV2IVeOso/QlmbBRkGf01PNQp0MoOojCrUHhvoOUMC3Am2irQqPT/FqzKgB4PtZxhD2FWZViHVRl4UOCH2kiSICn8t+vuv+DChQsXDsxjMG3bFt1sewsXPiwWgw+DxWAxGCw+6lifzoK2tjBhOAyHwzAMwzAMw2EYhsMwDMMwDMMwHP6Y/R4gSbIkSZIs4vjkxyOaVUzVPxkq5uJm5l4N3rJtz2Lb1jZbbMO/sZlcSavxyahtjDFnpDQpSEEKUpCCFCRMCUhBClKQUlL4iYxIQQpSIgUpSIkUpCAkPyIFKSUlJub/koKAU0Tmlw+kIGX41bZtw4Z2O4VMYtsKVIMISCQxkEgiEAFJBOIgiXHkRlj3ITGSHLfpde6EGgITarkk7T8W+f9dSZYzyzrwwIQXJkyYMGHBhAULFkxYMGGO1YVaxlvLvefczPOvezNTlTJX5i2jFB0VkbuQqSezAVH7XC/gglY0HCfLn0ETcr0DOZgNegGzAz+sIo4c7IiU24FntlagXsB4A2VxyduKKHTxuBbWAlyR59gsIUlHVGgV4yqkZYzr0Bpsxy1Qj2oLpYipTYx3tQfNS3JJxWzAe7lcQW9gXEPZ3kCSgjIJHxuXsr2BZuPkvbSBSzKesMXjLjtEFhdplkwGJ7mLeGxcguLib9wztYlXNG3btW1bDQcOHDhw4MBYxnnd+9sbg8GBwYkdB8qgtr2OoODe98VgsFgsFovB4rf3H38MBouDg8Visbg4OFgcHCwGXVDbHlQXw2E4DMMwDIfhxXAYhsMwHIbhMAyHwx+Hw99eWbDtxm1zISWVt4qgFkoGaZkg8+E1/j9PkiT/UzVhw4YNGxZsuHDhwoULGyZsOHDgwoHNzjbDI7IqqrN6tvf+X8mxtESI+38XNnBECHVGjhAhscuRtJRw4qKkHCHHm6bZSOC6hdmxEKFwyNFqBQ4Rmmao8calUsLWI+RwHCKUboFThKQlx8vsFHE5Uo6mKYfrUcVCkiRB+/9XHTYWNg4WDs4ZTNu2A0ljGavC4MODwcJgY/Diw+DF+/nH/5dF21bVOssb2zCEbE+ODxBsByT3g261/W/dZi2VLFmyVMlSJUuVt1SpkiVLlixZslTJkqVKlVxBAJQY7jm3xh4O2EMBh4NgC5fc4l8oYAsH7OHwn+KWP2+CKZj2cMAeDtjDAZtgkrsFnLEFM+8WDtjD4T8FN3E2t1DAHg7Yw79zsIcDJsEWzsYWcPYWCjha5L/JnUKbJOxxB19IkGKi0f4rcttIyVwXZpm6H+AJfyX9J+k/Q4iBxECZXDcZv+PdNCaGJ4YaQ2dwxVBiYGzf8X4sBm5MDCKGPwZkcMWwY7iNO14McMjauhODHJb/fDFj6z9NEMNi6l73tiaI4cTgbzC2YogmiMExda+LwT5lghheztgyw3dzllbSf5L+k/SfpP8k/SfpP0n/SfpP0n+S/pP0n2Q2REgjlBGq/f0IbwMiJBFeRxH6CHOENcIS4RehnSvF4bSZr227EmZCMU6CFPGdMtl8bctRJ1T9Y0jIbxIaNdZorc3zwfUIZ4T4zDMFg163H2GLEJ6BFOGK0K2bNlrnCT9RlvAlnKmScyA9fGebKwFIhKP5EUPVRpT5hI78HO6qqiphPSX8MCHBzoLrnEOY7YPuSdgeiQnHpQFT8yTiZDSTxwgQZy36YZocjgUu81OzADieIUJeBf5IePoxEhrRFKMHcd7TSZlwPXysEnj2CDvjcesRYyaknx739KDsu63Wpn9zMTF7MHmEczjucsiBsOinE9Vc8cr68uKP74frBxccPBzC+wFX2ieOPmOhlS0zK1grcMzdXVd3G+mc08GfTNpaffbech/26/dVkCqUfu/7aZquy1iUlsksmYDGKtvM31d9Em37vmcmq1ebKqSI75Qm5rgDGFLfSelfjCXCobbUi/fwzbXp+WoEpUNpGdm+7w3XUdzGNifRm2XmOaGfQghLI64sTKBpZfOJHvDx04sccKP/NIaJM1TJ3noAYcmsKhN43+6Vb5cQQsV6keUhhNqaIefySS3rDN5vcwJ/mFQhbXxndeeBsMp9J+OOGP3cMiatlEzbNvl4q/4iKhJ0TNO39+HauI44mE/woxt9iPdTgik8kN9EyFBfFUbyK+YDGl6sMNiOuCe/1pIqsbtQqsSr+RsRSFABU+2BcLI6BrmAHQJobFqdvIdMa8qQKr6zZ10sgXjkS9+JzoNDguyCQyy58A2SiLc+vLBu0Vl1ccW0ip1nB+B+2HBAeEoYzgSA2i2n5OPI6NuVOS2LQDiuBP61i74rKzg38jvLtmt+12nh0B45Rl9bhgMYZ8ToO5Kl4KUzrmo6eE1zZYwOSB1SxXfmAsBUXM2DvlNmI16a/TiSRvcAxOMT4ZAf5eCBsC0ByBuGc/DRw8HvTD0cgsqzZ4RiAsJslASEg1/uzc2UmXPoreS2s+fA6By4vxqlVj+iKs07Ai/NcaiKt57gsJmed6o2NXdqb2YPbIYz+ld32lQhNXwnwaGa9YO+U00COHzbO8LhYBWlgsswpvYjPka/MPrC6AMOMwdxyGrPVfQZ+XZZmmeE3I8slRR89UoQPeht6PQY/as+pbZTNvskEJJJHJpUKKui/ubtlOTdVDKVHZfTn4Hkogunrq8AtD15d/Rp82ep4jtb5An41+HSD/pu9yN819wVcRals2pgXOSm5T91PTEuwktzMQ7zU/NnDjwVKCz1Xd9kpKpUNaqp4EYgvGat5FtThyP3ZG/SaRc4B2GqeTNGPytFM9Z41qQ4RbtGI0HD4CWJtCFdfKf78vwEwHf2Id/ZixiO3ZtGR/yzBqBa95Y47vQQHYbNCjTPD/9yoOOMxFxnwOgHZdcEdIdhKIxMlNbWNGsLx0sNE28pkIgc+J10Z+I/IL9nya1N0JYT4p06pI7vlJ7IkPGQ73RLdWLkLRVW9QscvAcw9bSoFGg8UzgkCGSEYINK2UsmlxeTcV9VAJwsK9VZt5D1ZjLxvOwBh+2koSni+gRe/NczpV9coaDNpBQp4jul6WGSD/da87XvBLsJqYWjjZ6RtngwxVkAwnySyNTzBPJzg0Pb276rvrVSZhb3neimOT8eo3jIpNnYL1WZJamJQ21rOLJD/d61VRTZ6jT/2tDrXEZZclQtpUgN3ylzLi03FVlNyhu576TrzogJWHg6HPWLx1HX863JkQTGzo1bGvUg9jmhs+8A+Pl+eYRj3QvuFGY1e29LacoEMvoJo0NVzEVFd55ywXHt71eY3oYiyVxH5zAoZQde1jr1Ow/bbVOK1PCd/o5A1b3nlx8dFv2I7/RC7NawWOBGPxNTvYp63u/e0rFlKfsu5EXzGO2d6adk36Ew0ZzJvgHvQY+VkGlndUx+RBS/WAOck6WddFIRWj4/nbQUW3v2RvU25BhDGwF8TEqRGr4rJ2IqD4wOYX3Ed3QNoSJz046cQDHfgg99aAfNbTn6vOJNr19iDziesmRPyvMOrGTGWAcAIzl6mr+teid4YN+ZKQL5GZdW3UpZqo0KFRC/hHB41c4BNNpMnR5pRGr4br0r4jtHG3rEd3b1gDB5OAOAqt8jCCPZayjZd+g/Wl0AhXZtoGtV97PBK8a48glFjPHo1xfZNh4SkH1H9v0KZBf5dy9rdRak5RcpUZmda/Nxu9m3qxgTvMUMNTIRs6Vaq+CZ/A9TeiaIscpSh/TwnWabSojT4mvWD/nOFpHFQGhabqy7/3iyqARHkoye7y/0oeqYbC5yMUyg0LUtAIjPBrYpy5JbrC/LsrFWn3NddLt4qkC/u6JeSyNXqm8mbXg3VtDRvzuh7GRIJwR9fSkTYZu9q1dy5Mzw/pnUIUV8p0y5d0U9n9o+5jtLzSRTXPK3BN157pswITHZXHc7MSXtisyNeueW1n8wP+9oFoHq1rop/Iif6nko/mCmzPlF2zb3QFztH/CYIRdrk9Vs/pB/3QFTztcxLUexN/aP+tcdsdYaY+0f/6879A//+Yf//MN/kv6T9J+k/yT9J+k/Sf9J+k/Sf5L+cyk4WhKloO+kJdWluBkPxoZQeFAKmU+lmABl3J/w8DB8BzTdqRVDoOWl5atl7oUaMDGo3qa0rFr2QUWP5c90Dz3QkIfoMfeZ1D30hNay6R5Wu8PoHvpNRDNDHrqhdQ+/+gLdw8Yf6h76mnx7yENvU7qHWJNaliVdnfH+ka6ODJCHznwhD1FGyENXOMhDNL9BB9taGuH8UVpyLdMPQv2gMzzUJzrSQx5+0US/eUEfpO6hGwbqgNFML9M9vCnsAfLWFRby9muQh046yMNGbyjdQy8U1AG3oU79y1BH1jqLQade1fLzFCsgtYxani5gv8GA/YP6kJ7AbuCg/qffAUYeenBep6u/QTfxrq4+AGSitx3dwtOwh8+GPECe/78nDuTZ0P/dO5C3XhzIQ18DQw99BkM9dAd2JGoJWeePlo+WI0r8P6gf3IH6RCwO5CHWzjD9xqgDfjPk4WcgDy834QH239fgrnEHjMdDV2A0UcvpswJa3lqu9+g3HDAkVIddsTtCOn+0tNHjiTW8Raj6HdgD7GSJHi9mQMvdC7xFrAZsD9jt+FHZjsCrt4jVgH0DRtiBr2R4ePaFLgBaso4YfQ1ZnujRdAU8xv6ofgu3WJ4+sAGbt9gfPmCB6Rkw5u5xtYsQzcDyHHbk0lKwP/0Nf2JVMTxPaIla6kuFkb0tXWV5uoLHsFwAgvZXsjzZF14dEQFIbAIy8Bv24u8MzVmIidrnbvUBe6JG82YnmhV12zR7tktDfDMRdQcsxDCmae7YTvXKn5C6A3ZilO5t3245sdmpvqAmZ0gd67HjVNalPKth/x105HgeAnbumynYx8Uu76UGJZrmVx6Lnw4NagpgT12LoYbXHbLcFjvdQJ0rkPrN4aYRjzYGaHCJS58PaFV0APzBBhkBBGiqFYAImZbSmoiB39hb3oqfDg8l9q8dkgGKo3yVIviploldDPYm9LGm6NQeDuh8hdamoh8NzWC1KH0sjITxRYfEQHu0XXIoB4g0Ij3lixnC2XxxMTwLWCwuymHvmtCvXDbz1Zro3wE6uhWBns/cTRp4MjRl4jBELbTkcHcMuRLW8yhA6FNYt0wDuW3VQ5vXlkSU6+2wzlD5QTYYvL4YML9+sQm2WTBqK1CQ/hhLSAbK3Zy1VcbDGXY0+fuI97RXfyV6jIqF+Pgs535vP7hIvdLxISPqUaZ5GhYth7PVcBUcK2M0soESl3F1FbVW0bzNoUfMV3bkbtk0KmxtZfPQCjdFPpvNDudBQh60dLqHLchDaMJDGRqrQRbywI08aKngFclBHrSUEFpyEx5aEC3IgwdRz2Z70VDQYUKIJxe4H08I55cuIj7iZUF5EhE5BcfS90PzBBTrNhA7VRhzGDvdgSpDcQi4gYeVEJoQuQV5EJCH/LAeLF90Jtu1UpXYI4NqPltF2SlMePAhqvCCgmCINO0IZIi0H+y3jYBt9ghplQ4TsBmiSnREthXB26GwtYCAPROqjLGThH7deptfRcSTXpuNke6AkHFl6KE6ZNGZbFfeI4RgdF7Lv9leCqA4a1nTg9oIIT+rkAcBeVjSPWxDHnzIwx6EN697OIA8tCAPJwqKbVrXKNwNIQ9aBogtyEMWXsEc5GEFYgXykIfQ0qfTPfGjIL/uasZRFFhkiI1OFwIjeO1VT3obDRcfjgRb2DWczol9liMkpRWvNseMEz0M81CfkXuQBy05xLbuYQnqJwL2EEAeoMW1Ci+6VYsWnTLXrnYtHWCOKm+nms2UcQeZibNTZCEPWxCTkIcyxCjkoc6HX2gHhgttD8lC20hHc/bZQcBdFbluKt4p0bIfRFBkQETH4pXuBunD5IIVRZH1QwFqaV77HFDfKqOZYEwgZFyR0aUZdVVuql2pZm2UEPyl1WwrCBXUZwQk5B4kH96DtNhD2BP5Kqo/RhH5IPhe2vYCqWPR4ueGYD6irilkkSIESVTGbKx0h3JIaIf1oAReHuQwi86cN7/ekrizkjooa8kDYdxZLPaAw0LrDBlrG9UfI4q4B+H9nNoRSphemDFEGwWh+KXuOSAEuZaT1bEA4bjCxwNLuEIteT0gBBVKGs07QE5QagKrXpF5qeiWDrG4HUEOCIBThncdxUR+8bLqrDuW9UBh+xsZKhrNO0ANqjlHhM2o6VhiX6OMtkR34CiKnY05JRUz0E0bqrPuOKxLAuYd2QDsYsSR23XG7t7iyNSLbLX8G65mUQNmTgJm5cs0LgDOVmv8lJY1wHnekQ0wXMsF+LzlolGeBRyh7oKyqGPzuj2KHwcIMy2avv0/MrlKo2aaWYktUksubAO8bdFUFi0hUmFaSj1P8RuH2JvW/QzcMFKsuylTctsOHajO0cTeK7WsAX6EWnJpG8D1cMsO7xdOGb+QaDO/qOMIslVRZD0C3M5fv0hmwLAWFTk3jjwapdY7VE/VshJTVLk9qWgNuI9MHUB6EiSdRlNPUklfPMABMJLE+AYRsuszKUdkjV8SA6q17iDcfuWBwA2xl2pRG3qQLwcsKSS9sEhmGkx04IlkZlVy3tTUsxK90erM9SdAcPWk0Curte5IVdvNssKTcL5dV6x0vwP+fC2r8EJt1fYEK93vgMrX0j6WqKzelyl1MduR/UnHgSrPZyVehEspn1OKaOrugDc4jvUOy4NVLTmWBPPpkKHWOy5DxbFC5WuTiqHWOy4ExxFVbo8qdr/fAbHXbrH//Q4IL+TOg8dsc71DKvCkA+HHu1n/IfG/3nF3E6VYHqWUrSK6ma86EcTkik3SmaIX25FQP/DZf73jXu2A5dc7PllrYfhlUrE8Sir2R+yVnQhXP/oPuD1S3w6dCIedsTx7JZ3XcSDzjm2ScjtwItz6/e91NfHbJ0xP02aJHufj5PKW/cbohWwFNkm+M+DHyaXfEfqMUGwktoStIruD99u4devWVbguxMcgHr+r60mI3kDIw49D/A5UaCTs4QnID3yV5RDycGjCw1dCHp5n2Jbfgeec3YXUC+g332+UavMObRIRM/c6475i0AGfeAPk4WnIA/yPxE8P32+evmrUAf8H8vDY/xh5uGrCw90nDTvg//TZHDBur3XHinmKwWNG+nAPmB4w8w29eNu1QUWP+4u/QVdH9Jqu7oiQh2gOyEM3gm6h38xfQx56wuse+mBhDx1ZIW+dmSEPnVEgD78Lefg9yMMzkIdOJshDRzbIw1/3m9U9vF0NUvRYO5NxuyRNsZPwXtB+hxi237yiqXuIHlefWd1Db3shD9Fc76p7+Awz/aYHXvfwoT+kW2j2xqt76GsW9vAK3cMXf5XuoR1rDmpLG/LZFZ9hp25G032vvaK8kHrVR3itQQ2ZH++3dInhPShjD5DPIdfOQ0MPAeQhNO3BV9C5cGuIIbtEeJLTS8b9xrgDKvjWl5EHYabfQNFUhh1WxumhFRp2ZE8m/uuOdzlRUrI8Uij2J1idYXlWljz2x6sdOGFsNu9AsjxKKPZHbJdZnrqWNXQBSOdZnnI7SLzit0+YnqYLgPQClif0JPvDOXfA2G3eAdNTTYfsj/IFyyN8Z/JDZ5c972DkNSJbZXnq2fASlLwDIVke6QrkHWywfd7B6iUAeQcjrwlnyixPfTK4BCXvYInt8w7m3YC8g4Dt8w4CmfifdzzymnCmzPR5B5PBJSh5ByHb5x2ErkDewRbT5x0sXY497yBbZfq8g2x4KUrewRbT5x0sJfrzDmSgLsOedzBZZnmqo5ek5B2IRH/eweoWy1NdChP/845HXiPydZantXIpSt7BasI/7yCUTJ93EF6OPe/gJM/ylE8CogCLgnXlwGLYKlewArAI3mEocvoEgvS8g2IB55jmitaMgQWcxwBFB+VkrUXQekcKYAmwIlgdrAnWwlZgDbA+sCTypV0E6wbrBatiHIYpsApYdsGCkbkAlsM7EK+FIgmIQJklB5Yp4RzT9WsZ5L8onB7jPAYW4xwDlBmUk7UWOesdy4HlwdpgId4C6wcrLiAe5WCpObBOA2tVwGqnRdTv9xdxD8Ti/SIJeQfzJr9RESy+DhZgHtM5sHQBLTmwAu5j4GwiFwekDsrjBeLnHebAivsN8AnxVqMCVs6hfT/DPgyNqbEi4vfxRgP3QIyfFomddzw218B+KR9tIl3IueMK/mPgGPFbYYKIQUk6m/uNWfD5R7w129hfLiIkM4V/GGYb6zmkLMw1ZmexD8T1BVLJlRqz+He6qQzKs/i1CgljYK1oGmIHZWW5SDa563pksY/tHMI/Kl6rkBCG/R2krJERCHMXzmKrhT+390nodJXpIsLPi0SMgUXzt4IpMyi9rZAUxo6I4PnPAkzoTQj9s8FFB3LfczfHGIqo382Y+Q4eFI4ajKHTiWk4XvJ8Y6wDL4Fk06ow8l6QlLojNytk9L1bA06PQqJmk5iSoGCmIj4qkKv59IezEs5AXthCFz/2TGcI9nVHTjvG0OnrrqWzJF7Y16JsE/s2sADJTxtkpbxmNu+AlLpj1yiOAgAlpCQoCFTEdyiE5IaMRKz1xcWpC2fO9Y8Uyhx60Sk+3JqGPZwRPiYqiJs7gh5zZl3YxV5QmCTf9CwnJBRe4r/pmWXlazrjZe6SoRYOhZfxTJhecQfqBIFzUwrk4AzVUIsO5xw9Ci/ib+YUbGoFdee3qbWNWZJQ8GdVKOiSoETne8M5872QTf7sxv5w/394z37Gb+f3/Y3fbX23tfv+5t+7c/nHe9NCcufc9a/OvRkVjoZKOFWHUqGUnoV4YJde0fjp0q23nftd98mXQabuvDZV+IPfmjR+594ZJO6t6wzhZZLWA8FSgjH+zCZ9d3RDQPsCZ7pf94vJszLMtWNmA4UgHDAGwWQYgQw2uDSCvTzRiAd1Tttkjk0ZwiRIgTFYUFi+syaAYI0AY4K/QEjp48HWnu90UODdl7QjIP1+ZwaozRaUZwXUO8C/3ZVA0sP+tr+l3P1mTvOU9vXu9/Ml6CGv/aXh1Q4IAECnacvYVhpcL/Eqd7qsd7+bnSntfz97XiegcSrl63YsJBPypnsArGRQpZN2rPORgDsZpKSuZgjKOyActS04IzC64qGwvrUipo99RrVdXgS9DnhWArbdgooTDuvhDE1bb9eyXBYZV/Vd47bx4SIYPtzVb74DX1rBsxLQrQe7A/p13X9t+6TNs7674aG6S7uHGEFgR13dcPh1gMKymJBBaLLOl+XPn43tDv1UNrGCwCCYEHS5FrGUJ50KAo9AbujqiU1H1N3M+DWfyl37dtbHS8BBsCIoCC5Hf+QMKs5Q+91VDRzHU6c56crYcF+H4EOQEPT6zXeQDnGgIxh3SPYWGKQvLE/IPI0NF8GA4EGQP1wv/NruW40IWhto0IMkDgyjYmPiJQgEwZJzSVuGUvMEhOLFjDoiCF4JwQQDh5qeyus8v3aPSK+bMT0xYoZohaQIKgJ5kKs/JGb0tqOAw3We520WF+7zSx6CvaJnu2OzcA6JY4FOA43sr12eF01cuAhGBC8CRXBWQOAcgJ+ah+IP8zVReEC3p12b567QseGWEcQ6goRg0AGhGi8xrOvVjlKAUpEC1EyoGE+pWKm8so7gU0YIhOAw6Lb+8qVeWzEYiBtlROA7xyJwjgmC4HzQyDr99PTEMeE+FYF4CLxzGcLPcAhVq4NFYWc2pZhwEUwlTxkhEEJwdgrCYW3n4Fs7lZ/101Ni4nlCpILqCO6yCwKjHlSoxksMtlJXOQoQCp5nAgyLBbwsqjAKUPHhlp/lIUjMR56y6ye7Btm1ya6YMk+Jube+/qJHiUgagoNwXyQAFamAUip2Klf2SghmZj3Irl52rbLrlF1P6njqH48WF0RzJhwFwSHQpl/Px+496KDjAUGH4I9AzLs5aZaTqoc3vuyysuufOhYTa6+JcdDXT+KKRFIoSw8rSWHh2/no/dJw5uPBff6xaoqKEdllZNcsuw7ZdSfXLfePB700YjUS+XEEh3ghchX3RWLK9Yx7Y9KOxpzwKveG45mpqSDvJcynnGRXJ7tG2eWP/MET+9qL2NcTCYMpVgwHkwFf1PLGQMWPXxaUQIE3u05aKNNLN5UZA36XQCkzpHjoxSvSEHH9hcSGnnnJm5ddRXap7EKR1DESa6Pn6wg4AEZKA2WkY4HnuAlH6Sqv9G7NnApqyi4nuz5CD6n/jeS6sS8SjuDMvMC7fDgWdi6mccNRbmMhVLlXU0EZtJlLrKkty65MxvLAWulR4rsFZ4Sn0g1Vkc3FHLqVzHUsSOn2QQikg2BzWDfx4xfKrmapkjyVs6J3RnB2FPp1qffH1bHwSefqt7MWGZK8Wrk0ppm7iuDzEIQK8y5HdgXZVQk9pMxJjIN3ynwlUCiLbjbdvIwfNcJV34WtcN4LIBsuDEF5B9aQtWM2lYVG1n5efmkbA7vWCKy5xMExhHMvzo6UuhCk+rMQ9MzjtqJ1hT+/IcRKWiX+IOAAlDZYe5+xvzdCbkhnHCNYyUKkgprLH0jrodHHG2Vg4XX7EgoPhzJ51XtCwvcA3ydUGqC34D5dElD6CxOOUrAI3rHPd8304LzdEZrfqBHL23tfI2DBZ0Yh2WTav8CRlFAoPc9qe8L2MKe03AKnU9yEo1Ss7iBSVIyM77VINVjVxNqJ3ozgbNhg7fn+DIU/lIll9ro82MA49wdrEAvhKP/nl7wrM6eCZJf9gy6lB+tbYt+A4BlzuD5kWWZ160NV30MpzXkBhTG/IlBCWkM1ADTqpBgNUK5tGK+TulgS2K4tsKcVpRRYqXkITubRn1dWhCv8+QUhyhD7ekDSjxD2NhG7vXjbHUjpBcFTXygz3yu73Adq6aER5wPhKHBGDURkQed5nYpScEE7hMMJ1ajqORlD5Tvwl4uaWu1RQnAwnT5HWlLFZdMgVBOIqADnd2ZlV1LWclILdjUxDsjjTnZNKEROKsIDYyAI1fQgkM4NmfVQk12X7FINPVgD686w4BnTzvbAEMtl/BnqGSZhf6eBhPXdrQHYv27XuDrgnFvD4CwDWLYaCo8/jyFMPvb768qTdNdov1FwxhEr4V2Z/Qzf+M3IDT25KiTmTiQNsHdDItvFKRXfQ0oHqwcgFWQuyq6X2i8TekjuBbadYWTrx+d5Z51hs6gLP0LfgNpKuo1ldzx7mnYsD6yVruBgOo22ZEw2DUI10mY/v2P6smuXXWprqSF1jH2Csy9vwkl+5DTHA+M0HUg3gwUAqSBTdrmiZrRUzwpHAQD+/Kc8eZca/3Nd7Qr7mNfVsT2AB5e7/spH79qpvKdQ6R4qGQVSR0iPxI3kC52XB1LOYEVaWOl0TIBFzyLEJkhZYVJwHb/PK6WB1VF/5YTJjOxaipamIqr7dK0HKQtYAwjASgWLIbOEIsb4K2liuXGSbrXKxQX721ixYqXZZd/G76XjmNzpqKd5dKuHIFSZFgIBOL/TvDCNHh4XzRnBM+XXuq61wEHzm5578usD0W6ckN9tXSXc7Lh8t1XzxrFFKGrkHSjQXV04H7q6J6tIDo55V59V+7EgqAs8Lj2EgP3SncIos0hcU7/dUsIWCBmwSpVcz3tp6HnRk1IcbGOlvDrKLn37flJ6GFEXPtua0bMepHQe1H68dHPBStNoBnI+1HOzXMgwHp86Wn6PLvsvhDK08QhMF857aAjjyBSijf37dtNaJWN5q17h4gdDX0/7kHRzxRqWUWbpGceasKWRakgex7KJo07lbv2O57Ravz3KLpF+zom9ZFIPSSuQK8HISQzIun6VW3xiD1PZku8IkJ8f3221wMZRnS/7Q6utIb/hU+ODMYDuhrJNQP0L3DXzoG43DMPI54eLuUMIaLe8DrtggoZoEBLub6hlb4rlQD84v7xc13tQu42I2oHTg9QuzrZs5n2hJDG/LIL97XYLC+1kIucCzhHP4RzHp3OEFz0EPBe/sc1Pf9HLj2EBajXc3iTNIbXa3x8EXKc6FaHKtBFfQERaHXbBL7SfIiW+dqoEKSvEakSwq0Fd3jGn1W5DrAMfhltQUg+x8WCE/DUmOPME1fKQnoOp7IZhaEiHDnkHvrAABR6WgJHVQ5tBu6lcn1UFgPAsTwFDs+cXmx3CSt+zmAUTYmScNdYfENIzD1JmkGxlOhcOQF32zPvpZ7FLpJ+F1ENsPnh7CCIK5i5x1sbqakYhfyjqeR6Q63Z8enbMC8DnAB5CMbTxLNQLcbzz0eMxeY71WRznIhu6wC/ESD+FiuVdGuhVpxe8Y7v9CCzuZzGLxJX+npT+dQcChUu1wwZXfrRLz2IX3MIdHc9G6qF3bYCgVEA2y4HfzefxD/OtDUCgBmI+b82H5vudN6/b0/bejMXmdnz/Rsew15m1djsj23vO3l21D81wwWApxcEWVrwQGIdVetdmUseeEVIs5gmF5Aw9q2qoyw5+VtlhlpTZQelBSXrSE2wvulye6FI3TqwoWExOBvJo8oudcDHTenzqtfj4J3XhMbTR08TzH+81F4/Ji6kv5nokb0MXsfnf/F+6WD6P6Yk2sGkCdXnB+AFWbFg4h1mS5lPqWNOIY+YJhe3MDGdVz5f4I92JVudu7CtBYi82dSyPEKKM5AQAh87bqt3Og/t9r1PJ9CBtEY83+9YdGHxwndsVKfs2mPr6AL1znkfnag110SN9HUGogJ16Zn6Iwhm6L4o2Q/hmg1FVPaKVxBDtp8sQD7E1zz3HH7DtCrld7/dtZwVjnMMCinP2lTNUAwigX8sodsf+SppYbpzExO56v2+L8vJsquzpAQyqFvfScUw9hImvPxX7oh0YKtoGzxEKYvi5FCtqZ9phfwitB9aHfA3q3cwOhE4n0snDil7lnsoZQ8qVB8qKTbZz0uLzv5/mPCuAtrPslQJ4S4/p21nJbIOJiYFHMgCRubj0+0LYHYzfjHwjnPWFFHg3JDS6bXRND/Fif7QSFUe9gw9nfut5SVsPjxtmZSTSec7RpoCKsgjAyhmqUeuZvDnnN3HLOxjuG2lrdWCudNl4OyuRrvd0aTblQaiyIqIiEASrw77T0dRC6jiM2/iva030dV0C0TZQEQri+AnVdB/rXcsB2OloKaI6lfkLsXCqqUAAE4NhCLMDNYOMKApEHGiiOs+icynxBRC6/0xk7ZNY3mwupNSJINV/ugxmd6QaHrL8pv0GYG2gm2pMoDev2+vZfFbJr2beyNqCM9tkUBeud/gS79avcwHsjihFWI19it0RGymA+1Zv7NDjVFdjQvUJL+O1HUrAfv+tAIZwlIzF4WWwdxZ1H2P8FU27o5QV1NdioQZg1z6zNxvjh6rRPJSg1Vk1TQH9Tcdg03AUwep2BGJOO7B2R6wQwPvRluVAlMq6N+XAyMa7msBNGcc28MOrJXaz4yaM3dGzCm1wStwBCykpQQ2UKEpF1MxCT1AXVMk7VnOKfFXkyb4oK452R+Wfri+wmtbUZFco0qaeSauMsTzaNO3oGaB8WMqKX7ev3fgka5hvNY+7Mu38hOw6aS9OOGqnZoJeddntjilFNHrbxSMFAI+180VX+1PxZTmV1WO6SwbJTc5o7vD1AISjZunmfrqjmMPoPN9BHPOOVaNKVjgtHlwnTw/7YVm7F3jZ6dRR1hEyRzEQjirhcIvAAezpx5c07I7nVBMvZmx7n67zDdV5mRZ98kvmuzM0KXro4hQHd1QzQTNnO5o9omF3PLDvTLIkykKCxAyYkJKoRoVFRWyddMg72CsTvd6RCWVPP5p2MJkJU12fi6mH7TQ4pV07lSeUjvBQ2NO6BMqOtvsy2feG5fgnaoaKo93htVRLf9Z8R0tkzpx/HVNfmZFOStfeJ23Dpv5m4AtLu+Pew7aeHJkKYs93mFnmHKy3O3JzhYzlkVuqubzYaKXcrUdykpG6CYltV/K33b6HLs5QU90INmXPd7jKbunv776QyOdTTVplSj3IZ+P9jZWs2vwFnrYevrXAUHG5d4MxsjblLxQLSrZjJRtMmTXf0TfKLiGipTETuyO6WC8pgZKK7PUOQezp/dmV90yZP4lxtK0nRdJgfouPXrfL1jbrqTzm6zP01BGQFH2/T+y1Ox6L+tHdQcVz34HpDvPxsL8ou9y2I6njT39/trHIFWq+Y1bcMBw8tp0Huw3AXYby/Y0DwC61RSwdGEwyc+5gg7bT+bOya00dvxJzrzNbiVzejBTDkFrDrgfkAIWqgb2eSg5U6L2NBzWjL/uJp6bsmvZcOLDveebHYndEjWNGfq2Hm5KQSmBZELDsiN21B8p9IhuomO47QCaDmfMdX3hkYN+/L598pOD5YrnDxJ5+1R3sckcU2DJARXqTe601nzqGMnKoV7Btr7Wm2UWfmDCJPb0LWO4IwM2YocHuEHBvhvWOgDGfPQfCzCg7LAHrHdU4R8t8M8Cz3Tnq1YypHHFYdxoou9RxTJimuqcHsPW+9VOpOGafAJC+nRXoA8qOfLHOgGR/6E7x3Xds4iV1BO+Hg5U7ki+i7ukRyPSglzum8NSlbHyblV0CykgA90XRI+lKmN7GiOkgcCUEJ1i5gxAopQTQVAxb+Lt971LAt+uN4BswqHtnBI/muqmkIgH1jUMAlFIi2ex6j973r3J393JlsN23n6GeY8It/zSCD6bcQSWOAQjsIKCLHqauWdab7gmmbmO97yACs+nY7FbuoJLKbiBW9FFn8MsdVji0biqLI03I6jgeZYintiDg0DW1ixOydyPoiOcQ2snGjckuRb/34Hyt4TDdsnZm6GAjSwQbGyA8h6CpPDa7eitr9vsepn5/4yk2iNb/DlTuMBDPAsqkrqmdLzvNcmXQ/7qK977DCEYEXVYjv+pY7ndAGZuOJQGUBSklmVEzLfclFMwZOh40TJbEh2mauoB1+2DFbTMjKCSbsWd9IJjMAqupDN0LZ3A+d4AOfO0DccpkT1Cg+7FkOiTAsgfSjuLENE194FMWsD2UEjzNlHeAPhB0e/fj5t8dkF5oD/c7oqIrGilAiVpUSJBYDWLBeI5Y+/DqR1iAfFciOyBaEgGsb67Ps6kCWO/Gme6FIvzeRphDhX1PAYZGNyF/3CDSeZu43yH5RuMNDZMIeoYIMwjikPRe7H7IAjBDN/AVQTkVxE/cP1xPo1NVV8e0PyGaji5BOAlG9CCRoGB3Lvjzz0CwKIUBP6xsID0x1BvpQNskFsf0U1WdGgiAkz+aoJ4/tQGVSrYMv31CABjEVHdYH4aPCU1iAMs4W6IyQZbUHSJbAQFYH1O9sVaxPAwfHpukQPZ+BwBLgAWUKa0mt0gGYCWkdQeB1cgIBFiF1LqDwPocT91Bp/v2UnfQXpXcWq+mMugoghWICEMFbS1814igslbEntaeuR867ZAxriaKKK/jkV0DG8mDkph5h0oRettqtoG09DQO1kPAb6Ey/1CSmSIhEIsZjj3KZKfLrZMQ03GwOEdbdB4BY+BasbqocmZnK9NFsucd89w9/Gu9RFznY3FzsNYz3ONwdh9x3aE7ZwQEAixVxAb0Oh3HPaaoa87kObAyAWOglKPPoFzghMMXjvcbeGt/F/GlamFzvIFEwWBeCi/yUV7YmcK97uCpnSJW+x3AopqKMV7S48sFxGPgHvZj4F6GQoOSAvsdoHB7d+oMX42XdnLIx8KVibmz+BUOb6HK/HdGc3O+lLPOnc88w4vTmSK3IBCLZxhrceJKkeT9DlBcuHb9DJGktCbdifNfBy9zYMUx9HWH75RwHgNTpZ0cCYPyX6WbkVIKuVJu5uiw3wEKCxmMVbBmMGTilnTzhJVeBGCl9F4ZzE04isUaNizauVi9/wLWOc5Z9bgDMhgrh9fjDsA4pl8QqtFhURAoVndKacO1wGWhaMkYyGA9BogYlGB/z68jomIhoRrcFwArgpi8g1bAbULENUy0M7iODeXqFhCUdvvYbNyRoMggrEturRBYtUtAKeUi5UFSGnzS3Cg9pybP/d6RDoLDq3vH1q/spItxBCOCz0OQ2+3S60qOhHIqsBS1V/+U6vUOgtXNe0a9epTd+rHeQjmvxUHgvdKtO3f7Qu+GjjYffuv6lRGE+oL3hVMO9HHHVhBcdQRx2rsjAjERLG7eMx5NHEdY6gj2l9SfNZHHYu7WKa2+pDP6ulLnbppDeaH+ysq16k/d5K3NOc79DlB5pbcw8VTvWg/qHLvq5jnj2fRxruBNT/x0/ZWVvNXvAHbvHLvqKLirCEQzITzxrPpLKua16quVV+5uLjrM/Q7gXLl+67L5VO+GzrRXGs1vGNevCxe9abO84G2q5Kl+B7BnnmC3HDoCWUlmvPWKw0eg27bxRMSjBGYIbWY5vODzKn/P0Ez+WytOaWr5XmadOo87+KRqD+9ktsGhMxD6MGS2QeGD/ul1x0HrQFh6M++2iqD0d1ga50K/cb8TeGl8+l5u3Yk+7siMVBsJQgWSXKDm90MRPrd278p1e0avh3m82kgQ8zuH8i7ku4Qh/wJZLDlPyikURkkgiXCjzBCrzApIRicniOzfR4IiJTVngv72S6MoQ34CySslp0lPZhQyhESY1sOllM6m7eBn5EpIGkAXd6SQktq640CS+krhJX04OM39Dpa1H62+QOlPmxXVbpWIWJ64sk59gqVJCmD3vDPqC1S57Ez+SB+vTH0BX89NFKy78MvOe44EW/bqS1RfWp1Z9RW8NH7dIW53IJMZ9SV2zqGcuG+sBKOFRpV5R7JqD5ueQoo85DiUvIOq5JZJyu+ekEKrvAOWp9wORl7jp0ZZnpm2x/5IP2R5Ql+yP5xz5oM6eQejdZbHOxHsD+ecgWGTkdeoULA8IpTsjz8/yfJk0x7749UOWBC65B2UfZYnKF+OPe8gzfZ5Byk3IO8gCFkeEUi7ZW4fsabH6X5i+WfrrnrewdIW1VjYRSw8DPATy59etNPtDuqocWT7HSDzzP0MWg36wafJ/Ym1X5mYsE9koNzOeceZ3X1Onq5v2iic88QrMmD7vINAsj9+mvXzDpwybnregQoFyyND5QLMO1zdYnmqS6ErMO/YkTDEnu+AvU7C8mTTHvsjA8H4eQdOmaHMfAcO+SRD6/kOQsnyyHBEdt5BmPDPOxhleWZSnq3i13aH2/tsR/r5r/lGo9m31gETXkyQvrUus80h9HwHgaAWtZUD14/PXT+gf93qgeVFY23rdsiuM3m8RPqpD0iaV9mVt437ORERKPbCRtc7NnukaFnxuYNfoH/fsGSX/oGRtgHN+etbfxrpJw9ImmNZN1tu5kKq86F7Oe949oBl2QSWtbTbQGPRIrGt4rJf0Mt30JRdoWvbJMorXdg0Cpuvb9kUtnX98Wz1uaMued7BuLIF2KlBcbNRNnYXWjYJEeht2ekmFbJ93kEobZNly95JQmwCvtEoxzo3S8Nps0Pj+Q42ynTiPdPxB02DTBfT8IE7ch/11ZC9sM3jjuUPSD67b63sIjhgEGSX66qBTB0jsRf6140RItDFzbkPKZQLN+8YLIJofw2lrNxU7U5a5P+SMk+xGu0NYQQsWrS2rTccmOua+t8aGUoqzD+RmLuDCit52MC8oyzjdqSFgnPF7C7tASuA1dHse6FeWiMrwIyqA7tqX381KG8dDT5gU9OPEBaR7+jN8jjyufZOguReNJqzQLksKUdc3ZE2THEMrLg4rmM3KIGVwdI5qtYdSXsKYLnxBiK1klbRrgK7xiTcFzYumXm4voW1cWSPovmRMwQ7d9I1ywoVVrDqWJGwumPtF7AusF6wNv4Pgdve6o7NLuM1ZDtsSARnVTXreG/mkQLuC5svZkzsth6ED1leTK5pDLb1uFiNCLCwgjWuONu8g8LEPgmP8t0p5x2AJc6QbbABLoYTc6dqU2L9a7QmBIersIEGWF/BVFuRuQ56aaxbdGDXfyzgcGHdLdAa4UsaApY6ImErH0yARegJ3Y87lgJYST8LQPiWOoZFyMjhWA1ALnizjbPhtmhD4Rit6UgYva2xZpGy9mOPBNzYNY5OaU01HVIQsK4SEVv5Yjzj7OYdY7r7gEQkjTgfSKyNtUZjbWCt9NKIXCE4bG19XLNyq3VwEcS+npnHNRqNx11zSwCrI7C8k807uHJGxjYnWXPGnB4hPg8Q3Xc66aR36gbAy93gby3dSUyci0cOn37S5HAgOKyKdsl63FF2y+19MjaDzAQlyc57dALXLUjDOV2bXeDVh2PxTqIanMDONkpkPe44u2XHUSCFslM2NujKZNYpwjrFMKhWnCtT2QXOuUPFGecd3LeoC+mV8/ZELheCp58PIXjuor4Rsj9KSHtG4XbI69ftUBH9Akc8XkTT+VWhXY+you9m/ko86RjBiZkjUlIGKRQTwy62jMIZ2ubj213XPVS4XwCJ/0CtF2qt+gEUXPzVm38d4sfvQM0clZIucM5dehTYVS/i4Lez5gxsH4R+YTaPDy9zg5q9ZcPmZdyAX+KaEQJGEMHMCdSiI72A5Qk96RjxwfJIrOHUOXcwLJvK7cuy/eE9d7aXg9O3U+mcfApBtXMywfj5+I2hFhy/fWLHcK53u8PsyWSzZUvML+k/h7Y51wE+FO7WWsxI3LV3E7Jsbx+/2yr14+f8Mf2ZUF6vNOU1JVNZhxiPyVYOvLpOt4s/82oH9gtbNegqJfrleZ12jjdf7EpzdoKg/Q5APGpOn/Gr8ziZmqNKfSD060SkqQx4l05IdwIyx0Fwud9CtxYoOxJg13g/drSqeBb8UUF4knrUjh5Ya+zrp059HoOffxSgRL88n9Oqed58gcrmk700phJz/77x6EU/NyPm86SjwG96yrzRCJX865oQOpqEUgLVGmK5vxlLRPcw6CVi1x4KTEYOUGKn8EeRA7ZNgNvvd04EqHBVVdW0GqGePy6U0yEFYK7k7SJRz9cZVzq3QjpCmY3Yh+vznVYhzcLezCc+t88Ek3ONqhK44pLscs0cbXdMAbJ2GJ0jiCcgt+0TxKNJREq69aFyf5OPUNE9DHt5bIsUQOmSRhpwns5HFxZYRsy+AoZxIWw97wD7u4GgKp19X2aDQp0DZVuGPdG3OtJpIYfQJSPBddU5Hx+zRoetON/M05nKxkCvNEBemxk68QkUjPYMBfbat95oBjQFgAN54AnJ2kBdWkKmaUu9LAbzur3oqSx8mGz/ZAL4uEr0cQgF3+Sa0pGvBoLVGXsBopL36UrnP0nwTLFFakAa4Afj2wftOeS0oR4RTzyBl+v75JzCJ9e0wlZc8bMdK0ueLSGnUhsYoHfOreh2XR/d3mJCrpw7ajzkLj+uPXUWpvoS8HAM5GEpa5dcIqChaIsVwRycc/fgfMbXnH3nbCmh8FA5V2+RSozfxGgeTXoVoKS0TxbTOHnhcFfwzNCuZiDbGfi99uupzF2uMSEH5446wKTOuV7n72/sDufT/Qtz2mE7bTYfz3egYLtidcdIus2jruzt9Q1RPiDNE6prljKhdO1f4MWMqRxnsBxIuwzZ9aCNusx6h0h0YqAUSBMUEgY4AbaaWSiSZP1kANqCtuF6B0RQP6rbHaxQtfxP+0EqQ7qp/GkQ6ovNaGeklFTSHHYJrWqeYTs7ITeOfGvNOf9sUAVcEtJd8XOv3ZHYK1Pgy5JsKtsq6TsCyMyeAKtvvBusTfd+3wfBkejiYK2UyDqCutR2BwoQCzPDGVWlooszIko3AjVRIj467Q62Q5rR3Kbl5yPS6TSZ8VNXrz3CCMH9XuerwGlpxo2ztmx9EHw+emlUqVCRcmEORklF/geDWbFwO26cUSq0yPCN9k5KWdvWz8WvcymrEdkR6pLbHYcvW4Qvb4TDQ3rCo4Q1bzCtPjYoqTAgwhAhw1bR/rRJ87SLFNrJM48UPBPWljrJc/Ct7QSnDZCtlLLS5+csyscyVBCT5q/Urn5Ct5IwHMu8YwW+sQCmshZnHIJ3G8BwUvRR5OLMAswXQtdOor4ioMy8owhPhH+EC1+FWmsPIOTbFTcosZAD5XUvcBs5OwCGMaORBpiQOD9944QM065vJ8P44mP1Kwl2nQtGdr3P2vukS8nnyxBInd6mDc8KJZMmWCSlci0EV3WiV/cfb2QroAsRygg7zgq1JvcmJDJOKKYynBCuETkqC6/rtfbXN4nOv5nUPQhOO0C4riRJtz1DnYfzqiTR8YQMo8RVda3GChY/dGoJG5p3rJDURduNjLvcuWZC+i4BmkEoOpYeeiq7fJAa6X63qjMjUzxUQrRSXj5RGYy4+XHR7iBCEiHFWJjQJY9vqWOq5Xgk21ofExkxSCjYotxOZXcc5VbLOu8qMVrlsboRouUlWJ432knr5EZthJTkcR9qrXN0LCXHknegYBJNgMKj3hqYxCgQASZ5Euod6C0YCkli2AiCWCcGYLr8YADhReLlKm53QBtZsBv0yHseHrkiM4igFBIKOhjdMMBmqxmCKzMEVSA9IQX3pfMRSWNgrVg29czsc6kJBO13AArkHYVu9KciCvcjhi4oJCb0AuGLACFV6rLvO4a+OgRrUcoSEcPUJ5ZChuOFqjhHafroIFqSOrC4QTFDvyOp8KEj5J4KIW+N9uFQvPPq7lGioRU22aV7mlkQe1rvoIrOAUhWAQzPAoacCYiLAKI0y0n/5v9bEMDu/xtEVHJWmLfLAxCh4mIJ0Xy7g1JNtW1FdidvioYV7ck1jyYzWHzN8d29NFJWoMPW3VYzczP0Xu8gBqzXFvBt2wh5GYYyDNIMhOoimSRhmpARGSBD/FFqd0C5t3nZVQhzgOq/7tOHp2/Mvo39a5UI3PX31My3aON2N8DB5Q1uK+dWExInOU5lJ4m/BHVV8QKvj8c8P3Ej1EB+kKM7XQntDjaytnrc4fi755NW38OHZ+J8YDjQ7xLLRRC9M7Mzh5N7kT+YH2+a2Y/8qu8s2R3chOSpHKsG2WHrix7l+pDctsvtYKnZ8Y0kkrVJc61lA3udW74KUFLZ7HHH40fCXDhKCwIhuI4XWM6FCIJI+NH0zWwoSiqHyW1hdWFlAzMhfbr+itIZcJeBk74qqB6BVLK70TrtHm1rLxRs68cdkG2sdywLiYH8DmDnUJ5mjmacqnpsZ+wQMCFvqqbec+nK0pVUdLOkJVthOG0+NrT2QhywhfWO5nS4UnYOH3a70ciGfs4MdRGkLsH9jHwYesMuA5jxcUIp5QLAua3j/7jvtYVsdNtPyPI6gmEq6UkWVHdp1hOa45Y2o7nSYRN3n6k0nDuGvOF6f6zzEssjwO7e7p1cHenQut3e6a107mhx664IRN1neYK6cJSQBpIgfAv2mokxITUUNCHxZIhcaaC7EvzgGWANdTW0O2gesDyTtZaDJPpWI9Fj6B0hg9xg/aHzUaMEflW0O3BCcM55/oRsBbbNs1Lh8Mgx9I6SAT9K2VhEjRL4R4iwLu0IupSoLIQjqDvEMjCqO8SaCiRi+n+H2HreAXXqDuFCPDKSRvcXAsF5/owR3AeFUd1BmJY9MduYoHfeAQ3Z9DpguIjmTJwPzAyslYW53nYRq5FAcNDrDsqPAYvuEgAXq+mvO4yItu6fkvRPz9srtoYOvCDEg7F/TR2D9FXq1i7cDHMxGo46ZEnyG5TPO+D3zwgoIU946a87kIi27uaImnuO23HHZjcn5EGcDzTobMTVmcgVghvkugPJ6nSUp3CNgBIy566YKHWWgLZOjXEnm3eg5nz/CY0jTtquUYyInTrG1HcLqAUHrJYhqrpxe9/vAAUrS8i1sAbgwjLuba1cHytSfb8DkCpsDzuqbpqPEdq+Bey6g68U7Q1IIaSE7Dmc92bS+lrOdNnaWLd1OUe/uuPpr/mKP5lZY+prI82Vo/f1l8K4HQnay0fOGc6LCxl8tZCL43EHYN5WpwXee/kouZdAf10FmyBl/sW+YQBZcAou6HHHZv1xR2Kn2kaUIl49e2BXyLLKT1s0c4z4ZcH+eLUDR8NnWbb6IQL3/vYRYgb21nINk7VWooNlgj+V+gXFHzTzIGQ1YHnCqrQbxpUrldBk3syDEOk8y1NuB3ZD80ItbOtmuwvvmOOnWSTkN0ceiibYyzsb/M2nWSTWB+5pmjmHrT0fT5hLzgbTH7/wA1WIy4jLSZL4wDRrO5LmPkQTqV2SNN/Vy4jMkxit2yNOZr8D2JIwwSDICFKoNVPYb3eYCEzpjpW3uoYKBcsjQsn++POTLE827bkCeQfsRvbyOwDLE5Sl3VEIsTseeY2fHmV5ZlIe+yODkOURgXSf8g7Yf96RnGwxfd7BpEj8zzseeY0M2D7vIHAD8g7SI07yDvIe0+cd5MXl2PMOJlmebNoVyDsQI03yDrItlsefuSx73kGY8M87GGV5ZlLuQN6BYnfU6CtxzDtYWRFsRb12gteX1RVTIQ/wnHeYCtmKag2v7Q7z+knGYq+NY90hG22frcg3q1jVHVzbk0yFWF3CsO5INVOrMhVqaxurLwvT84KtOJhRGJ6k3hyNJmGrbyQUTsiTZoutTiIkxxCxvRQy/LyjenvGBZh35JUlwyO3WonVeYeK6ecdK+UCEM74DI+qr0jmJzx55ahidlRrvtnCGbm1Eirm+Z+sb7xy3tM6CZaEM3XJOqhwJVU7ETjjpV65lA8k27yPNl+54SmOIyr7yuZBXSimwV96ZXNScLw/LL3ylemVIRujU1dowkNowoMw4SEY3gO8VUMV7EGa90BGu5Rv5EGa8aCMPARxehCwhyGLxdgDtu2CwysPUpMhx/QkwWj79c1Vn4yFJk0tNBzb9dzkg5jrFCHO4wrbdsGhk35qtSwx/zIVbu2l4Iy2fE0XnN2ahTzMwEmPkIfskBUg68pDnEAetiD2IA9VqCXb0Ks4QR3qDhvQSz1BC/KwCnnw4J0eoHtI+WS0K5zXPaShfhikh/cwD/UHP6V7WIKWu9fWPaxCi7sFediAPNSbuodtBScB6NqDa8KuYdsuKLwn0vclvusdkd7MUrse30IT85AHKJAhkqD6bcMAM0caju26mG2Q4dpVhjyccIzHFb7tghZHVbaEwv8bKRnA59H1A11bEFXIQxledpCHqqGHOhxnyEPL0AOcHL0CeYAvzrK6hZMAYsbQw6TuYTQko13ChAf4mlw4asKDhLr8ie5hxtBDVkFdHmoufBXNgzzA3ad1gG27oDCWFebrHVLCF2YX2gk+Cw3CNwywNyTAOLbr0fSDDNeuFtxBcB5X+LYLCnWQ+F/vWNJ/RkBCtSo3BJObHgQWgUPQFdApI/hKr3O1IJtDHoL61AI6DgKvtIRELejmEFhIv9lBcHh3LGtANYfEwvpDKghOb6FMQzaHSLfA/rSK2rQ/KdwbeqXRwvsLlRfqr6wQuAjWTmnVLcDbHZTv6F25ovJUojmkFibReSu/DUcdfgAriofgCFUeS4j4YrEiEPxQrH4PRxnAmnhuApQCWBLlUf4bjlqlND2IQEM1VaykWFHPxYJQZcJRKmRl9SQ6yYEVjxpIpXRoDUQEAa1zwlEArqymhCYFsCLqo/xZSDlzqN3eH8BWHBdYPePmk8UrHpGtT5v8WgA6r7OzFbBiIVGITlpBNw8eGQ4HvK4Cz8B6EpiMWbHd+Ig6IgWmspbIISv5HZXDp1QaE64P7LHdkf/Bf/7OOYMxqHgl8YInAuwfUerUxTqJXZ2nn8ILmPi1XpqPfX2bjNZENxA83uqGChf6ymuZeZK4CLrRykzG34c4vugXIvFll53fW6ymjrH9lnE+EEkh1Dm6Fj8ipXD7wT5i8FppNlAM6hzaAlGwkqCiH919ibWxljpGtbh3z6xfeGRc7eNFtm1ZI4l5kKbfIUUPSiuUgjiZd1s3YRETctTAebQJA01cRMPFcP/8zzoZtu7SDr/QyG6i52ERXkFL1/HwVPC9ttNQIGsJoAn5Aj9ZNvb7m2sLo0+WwZaRsD55o8D+lACPRN5An/wyGi4iV8xVLSps1mnjBUZqF2r6Ha76f1ERFEjOvtFzJbzb5c5yLauqaCZkc100jxt3/KXmpPC0q6u8vcdj7XJ3Qnas8m3Z5Uc3h2CqSobLVoc/qBUW2fyBtONBiX5H9p+RjC7hr8OElDXRkFOVv8Q52xN3B2Myy7bQSeupaLZcVyZzmr/knF6ntO1Sps8BUWFUUzOxCCkeXXgBgUEw6VgwYe5d25XYC4ScPWLZaTqdmkJoUDq33+98hgK28NUGsMU2CAbr+/raB3QeGPMJWVV9n7ZJ6hi20MDdHPaNEOPI2WQYe9cWMWF+nY4lQuZOg2DpeDoWTFBMgJAHfDbdDeIioK6HCo1HtW5tlUXA41R+ydoIvuTkXF3XDaUS6AuazxTld9B/IcP4Q56eJULrToPAeQgeBF63ggl7zzxKfO0Q8ne70vodlYv7XOMYAaOD5PC6vXiVOxJbeOhoWDaAIQTY1gP9HM6i3I7Zt1bIMH4ZfsHfULeCIO5G6FxKsprfgY9YaTr6YH9/EmhtLt77J9f0TUVNbn1VT8gImm3f3vnmOpqyu9NpzQG0qx/sVM6bUfdQcqCp53aHkHjB/0bL1u54jD8mtLjPMW1XeVDj3ECmLoHbHWGzr5Ohq9L6Yes0TaUGNrUJJEqPbICCP/5Spc2EjCT+YETT7dC29Vl+IRFzs0YfrySeptnVz7gQtyKGgiEyQCDBUBBOMDQhwQCZ8Nd8TpQIfoRS4C0LVZIjo2mGTX1aQZGm7LoY+vkd7QtSFTEErQpq3vijhoWIEsU2CaKqaP3BeSO2rcGRWi4iZiGGi7EVw2cnmLLLLtE32dXE3EnX8+C03Isasdy88UcNCwlLFGSGVT3Pq3dI37Z33MxBHMZsM/d/d2htBX/8QNciZD0xDnTb6yi5GJ5ZtxQh8x3kBpj/vzu4toLpLy4vpY7VRmNtLv6A8CGSXofu2Nxa478+cGl+0TdzD714Ysg/xuB67afZy3GHUYs/ttg3tC3DjxR6LnuMC/HI4S3xR9xd800zB9FNErPry1lcN+3ouOPQm+NRz33fodyBCyA7Ou5IdF/sKB9qxoEddyxv/TxKqb/kE65p/Bd7uBBBJIzuI9V/FIgBS6GGi08dO/VwYm2cu6kVCF4QwXaOOzIe9Cjx8HXS76DndQWH7HN2CUzAomAVpPBgdjvdV1lHrnkp2BzPNsYz7j02c9zRcXHSmmXbtN9BtwYcsJffJXKgyc5qTd+McNbeCWaGB/+sBBbjiRxocrAaCrElnd9Bt4L9lZ/I8IQOpBysjlNA8v/VNH4HTaxNI+EFYlbBGmCl2wWeYMOil3gOVEqZX+RHFH32Z1dtla/pa68BZF4LnCd4oNJ+Bw33Fw+F9Ttowgeq7XdQ2ZWaBTGott9B95gFMei230EL75g7bqbpd9B5vwCPf/TNaL+DFr+xZhbgMf0dR0i/g+5daZoFeUyztvm7Qq1VqV2SPB5klxusIi5Rj2mGaAZBRpCkfhmT8wQ+CEzpjpW38Z+38Z+3+gqCXyaUSuTjuppkDWWUSmYoucAg6BH8Edj0IOgiVORv5Rvnbg9y0lKKUEToF4nfFmqV0vAs5hZdX9y7eQhiJR3uUyPcEfZF8rc7GgJ5qpuOCJ/lexXSbwFFWCP8i6XhuB5hurdQcn0/lNW+dKsB3Z9mif/gElUNpM3c2r0I43UqxMKAoRtDzOX9Y401WguX6u3Jxp/sHPs6V4tF/dyRBk846vy0FI2OCDsk/LQP/0LvWo4GCMZbezd0skbN47kkVCWE0SAWQ6gyS9CoG72hXzRSGgRZpEcHU1UNR7F+SoOnmrQk07AcOhUyBGx3oHGmwSEoL2SRTgdceWV9oUzgZO6tTZWo8dQDnhoOdRZiqNjuiFqJFCrPqj9rIrt08+MJFeoQhAZvwgSIQZ6cHUK2O3TURPRTvSu/MsvU7uPEQv2V5dKtpzsTRyWqnBl+Bm/6dSVv2jGH4rDofn7BkmBZBApH2UI1vlhQwkqxfqz3CCkVwlG3O8IKWMqC53g9WBSsByy9hk5S6sDqWh2LiB/S6WBFfeh5lW9E5RMsA5bI6VgTCVhdVHWseH9hK1TDFw73QJoAixdcPwo7YDWwAM1zjv8cRKSFgPbB+8I3Di2wJlhvDvVLThZYYfCZo4BQUjqPb7fbLenO/HMDlSpg/WCV0yL6s+UMWB9Y+6lCQOui9Q+hGoHSReUMrDxWdPcogOWPGmgqdhHBfmWUUohBaKhhlVIGbdUR+qsgANJm3fdguyXdTIA0DGebRdTvp2ANKBLQumj/WiDgNDG+U3TzKC4jK/VdGX5NHQflQv/BSiivWmcWG4jriOXikQdDlQk42jCc3UddCt0cHAloXYS+gQsEB9TE+JibR2YKZcF+F9xXcL3/zakqTlcs2O5ocwHwViHO15wsXF6Yqf75//vC1oXabGO34OKxjHKgk1/nbXCG3QLSV3gtC1rFN6A5um/d4bOn1xiabZyNuXcUdhtor7RvDBZTC1gfrIKDsKGqXCPgmZAAfqBSWXPvyBHymqp1lqHO4w6g0OsORQKTtaT/uK588U3UiqYbo3B+940sDIYBNGKI4aYlcieIYcbQUOuo9yH1XFVj8CLW3dm/DpWSX58jP0WNQV9lOR1StPeaXzD7RhK4+DzX11mi9z10I0Cvo/hA/Apj8ALvSTxEJfnruI8xSNTIP0BK9DyQELT3Qov+f4eG+8C7vDiGYUL/efjU+35sPDrqfcjxVDPIj+7O+bGolFRfDEJ/TXIDSIk+j00IF5/njrfx7/vU4QNzfl78Ly4DN298uQl94FMP/uzL41F/TX0F7uv6iB/M1PlaYgu+cP0+X45K0fD1+YOpBqVUbESihO+ElPPXbStkROL8bh9v49/lPw//3pyfGze5+6FPfOrBvyD9Mtg/9kkKgPrwooGrYa4VPsxoVkfiA4n2kYNwk3LNUKBBynq8hYrqBBC8pqcGajHh6KWUw5tRQsShXoFHD7W4KHyV8u2sQ/BbsC3qfeGblzjUJ2OSP947H+p3W9slIj/B8RvHi0tzXQ+yrSj8KXZXwITcl4tNvR4G2dYctgQAKk6flOlnm3aVG1BCUAqPL+O02Hy31QD9+gROtkb81KjTwpMDKNc+yhLb5NMzaLoJuXFuVwJnqHNTmS88T+teS+fqLXjodnJ9FfAq99p66dxAoDqwxKdlSqK7YrgrymRTPGy7MfFusdmSbv5qpdR+NyDtbHK4XnQckR4Kn9fauxE3zifp9adl1kXRVrqpDNgd+j0Bh4Xm/Y3FbNo8FCdg2SW7FKBi0fnhPYui2N/fth7IXOIy4AXeflrmpr/zDPkZCrLZOKMWfJF22dstfKsBX9h9fxUssu97SzgVBJwKW9hP0osAGMSvbsvXjoDFXyT0jXG522u3mVFcBcHAbaGBstNdGcw+NSN09+/ecl9YXWT8NJULTmAFPg60lbVp3BOX1wuP8L6QGyk5DqbOkwmZXX9S5q93UELtHrdzB4NNt5tKWS8wozMq9HuRzx01kmOXy2O/2KyOCP/yI3Iygd79cpS5/WTMszKexe3KaJtAKWibMEE9LyrJA5QggHzoC2vjmXixedLzLEH+gcl8GgXxXWmoyHqHgHpe4HYHShQQ1d/QH267A8sj8WkY2l6EABVKSakP875j4FqI/tZofKD3HbM6Ep8GcfTrHfwHQbkTg3nzeNTZtzi/u5NB5KdU7b3Um6NS/MobhIf3SW+OUs+5374y+0YSePj6xHgbH4N64OpweCcuPf/C/T5kcKuehDuolFLf7mMMLj7Pcwelou8DvoAMtPc6cbf+0NWBDdc77ubw5p9oRjGEB4cv/kDYQk/6h6/PIoNIlNZ1vsInolKixmiQVP6F+90+EaUefX5KhQweuV/VqKExtMM7/2uq/X/G3SR95Nse/v0Ndqk74gMPH7wLNyW3CrDoLhmMZijzZJWYps8zoXJfdu8oTlfo8pqKlSHjZcdq/zZ9ngmdR2AJ9w4+RsC4mm3sb6Ks8q1CAos5xE+fUyJYz7lyGHzCfVP/zs42SigH+pUpAqJwtMPRamycgEic3ecuHjx3XGk0MH+mNixeoclLPGujsT9dQF2Y6Q7+kThaLrp68Nwy3i+qWJWzY8SVhxfHSkdYh2F/caeAvjLb0/V9vCMBVrtd4O4evJjZnAAr4qtlC+pqL5xewzgKEzsLliyn3P1pjCMxfXvwRplLB0Mo6T9JOvnYd2AXvdglg2nkhvFpL37ANnpf94sbH/kubKOPvMEL/pL0n6T/JP3nkgwUAA==;" vertex="1" parent="1">
          <mxGeometry x="-650" y="450" width="1024" height="608" as="geometry" />
        </mxCell>
        <mxCell id="RPuWiBVwpdYMSCflNkx7-4" value="Single node cluster architecture" style="text;html=1;align=center;verticalAlign=middle;whiteSpace=wrap;rounded=0;fontSize=24;fontStyle=1" vertex="1" parent="1">
          <mxGeometry x="-650" y="390" width="390" height="30" as="geometry" />
        </mxCell>
      </root>
    </mxGraphModel>
  </diagram>
</mxfile>
